:FULLY-SPECIFIED
:FORCE-ALL-JOINTS-BE-3DOF
:DEGREES
34
root 5.97166 16.9207 -28.0622 9.94965 -2.273 -1.98024
lfemur -18.3969 -0.368391 -19.9489
ltibia 31.4236 0 0
lfoot -37.5179 6.55277 0
ltoes 36.2795 0 0
rfemur -16.647 7.58601 19.232
rtibia 30.2646 0 0
rfoot -27.299 -18.8673 0
rtoes 15.47 0 0
lowerback -5.81294 2.39328 -1.18033
upperback -1.89109 3.2397 0.689808
thorax 1.21574 1.61733 1.58682
lowerneck -9.52592 -1.48593 2.84778
upperneck -2.47508 -2.27119 0.665518
head 0.787119 -1.1396 -0.345645
lclavicle 3.45398e-14 1.56188e-14 0
lhumerus -41.6594 -12.5533 96.8588
lradius 38.317 0 0
lwrist 5.57357 0 0
lhand -11.7077 3.86438 0
lfingers 7.12502 0 0
lthumb 14.3387 33.3491 0
rclavicle 3.45398e-14 1.56188e-14 0
rhumerus -40.5404 -5.87384 -88.7962
rradius 38.7959 0 0
rwrist 11.3126 0 0
rhand -27.3604 -19.7021 0
rfingers 7.12502 0 0
rthumb -0.768172 -49.6842 0
35
root 5.96736 16.9209 -28.0635 9.96037 -2.28232 -1.95069
lfemur -18.3464 -0.458498 -19.9608
ltibia 31.3287 0 0
lfoot -37.5493 6.65362 0
ltoes 36.1867 0 0
rfemur -16.6754 7.55242 19.213
rtibia 30.2869 0 0
rfoot -27.2876 -18.8427 0
rtoes 15.3288 0 0
lowerback -5.84352 2.38287 -1.14141
upperback -1.88301 3.2232 0.636362
thorax 1.24466 1.6097 1.5103
lowerneck -9.51617 -1.47402 2.88108
upperneck -2.4794 -2.25856 0.708205
head 0.784157 -1.13307 -0.3375
lclavicle 2.95671e-14 1.43781e-14 0
lhumerus -41.6537 -12.6153 96.8525
lradius 38.4743 0 0
lwrist 5.67569 0 0
lhand -11.7367 3.84439 0
lfingers 7.12502 0 0
lthumb 14.3107 33.3311 0
rclavicle 2.95671e-14 1.43781e-14 0
rhumerus -40.517 -5.90654 -88.8594
rradius 38.7439 0 0
rwrist 11.3339 0 0
rhand -27.3114 -19.7536 0
rfingers 7.12502 0 0
rthumb -0.720819 -49.7354 0
36
root 5.96303 16.9205 -28.065 9.97347 -2.2757 -1.92697
lfemur -18.3463 -0.497536 -19.9679
ltibia 31.3025 0 0
lfoot -37.5314 6.68909 0
ltoes 36.0909 0 0
rfemur -16.7073 7.48923 19.2019
rtibia 30.3134 0 0
rfoot -27.2781 -18.81 0
rtoes 15.1198 0 0
lowerback -5.86483 2.3731 -1.09154
upperback -1.87388 3.20712 0.58243
thorax 1.26988 1.60237 1.42677
lowerneck -9.50796 -1.46553 2.91051
upperneck -2.49238 -2.24986 0.75345
head 0.778807 -1.12855 -0.328011
lclavicle 2.4636e-14 1.31051e-14 0
lhumerus -41.6441 -12.677 96.8402
lradius 38.6437 0 0
lwrist 5.78011 0 0
lhand -11.7631 3.82341 0
lfingers 7.12502 0 0
lthumb 14.2853 33.312 0
rclavicle 2.4636e-14 1.31051e-14 0
rhumerus -40.4931 -5.91586 -88.9291
rradius 38.7051 0 0
rwrist 11.341 0 0
rhand -27.2538 -19.8131 0
rfingers 7.12502 0 0
rthumb -0.665176 -49.7947 0
37
root 5.95852 16.9195 -28.0669 9.98983 -2.25012 -1.90971
lfemur -18.4047 -0.477411 -19.9694
ltibia 31.3553 0 0
lfoot -37.4543 6.64845 0
ltoes 35.9904 0 0
rfemur -16.7416 7.39583 19.2003
rtibia 30.3413 0 0
rfoot -27.2689 -18.773 0
rtoes 14.8283 0 0
lowerback -5.87725 2.36339 -1.02676
upperback -1.86313 3.19061 0.526647
thorax 1.29265 1.59482 1.33266
lowerneck -9.50146 -1.46061 2.9357
upperneck -2.51616 -2.24523 0.802778
head 0.770442 -1.1261 -0.316625
lclavicle 1.98194e-14 1.18338e-14 0
lhumerus -41.6298 -12.7389 96.8192
lradius 38.8285 0 0
lwrist 5.88852 0 0
lhand -11.7868 3.79799 0
lfingers 7.12502 0 0
lthumb 14.2624 33.2882 0
rclavicle 1.98194e-14 1.18338e-14 0
rhumerus -40.4671 -5.89804 -89.0088
rradius 38.6812 0 0
rwrist 11.3318 0 0
rhand -27.1885 -19.8801 0
rfingers 7.12502 0 0
rthumb -0.602154 -49.8614 0
38
root 5.95369 16.9179 -28.0691 10.0103 -2.20253 -1.89951
lfemur -18.5298 -0.39003 -19.9643
ltibia 31.4973 0 0
lfoot -37.3086 6.52096 0
ltoes 35.8839 0 0
rfemur -16.7769 7.27159 19.2094
rtibia 30.3676 0 0
rfoot -27.2587 -18.7353 0
rtoes 14.4397 0 0
lowerback -5.88115 2.35317 -0.943132
upperback -1.85016 3.17282 0.467645
thorax 1.31423 1.58653 1.22443
lowerneck -9.49682 -1.45944 2.95625
upperneck -2.55291 -2.24484 0.857713
head 0.758438 -1.12581 -0.302789
lclavicle 1.51905e-14 1.05985e-14 0
lhumerus -41.6101 -12.8016 96.7867
lradius 39.032 0 0
lwrist 6.00261 0 0
lhand -11.8079 3.76466 0
lfingers 7.12502 0 0
lthumb 14.2422 33.2563 0
rclavicle 1.51905e-14 1.05985e-14 0
rhumerus -40.4377 -5.84931 -89.1018
rradius 38.674 0 0
rwrist 11.3046 0 0
rhand -27.1165 -19.954 0
rfingers 7.12502 0 0
rthumb -0.532664 -49.9351 0
39
root 5.94842 16.9156 -28.0716 10.0359 -2.12991 -1.89697
lfemur -18.7295 -0.227299 -19.9516
ltibia 31.7385 0 0
lfoot -37.0845 6.29589 0
ltoes 35.7698 0 0
rfemur -16.812 7.11587 19.2308
rtibia 30.3897 0 0
rfoot -27.2459 -18.7008 0
rtoes 13.9395 0 0
lowerback -5.8769 2.34189 -0.836705
upperback -1.83438 3.15288 0.404056
thorax 1.33589 1.57699 1.09849
lowerneck -9.49418 -1.46218 2.97177
upperneck -2.60476 -2.24885 0.919779
head 0.74217 -1.12773 -0.285948
lclavicle 1.08223e-14 9.43363e-15 0
lhumerus -41.5844 -12.8655 96.7399
lradius 39.2575 0 0
lwrist 6.12407 0 0
lhand -11.8263 3.71996 0
lfingers 7.12502 0 0
lthumb 14.2245 33.2128 0
rclavicle 1.08223e-14 9.43363e-15 0
rhumerus -40.4031 -5.76589 -89.2116
rradius 38.685 0 0
rwrist 11.2576 0 0
rhand -27.0388 -20.0343 0
rfingers 7.12502 0 0
rthumb -0.457615 -50.0151 0
40
root 5.94257 16.9126 -28.0744 10.0674 -2.0292 -1.9027
lfemur -19.0121 0.0188752 -19.9304
ltibia 32.0892 0 0
lfoot -36.7724 5.9625 0
ltoes 35.6468 0 0
rfemur -16.8456 6.92805 19.2657
rtibia 30.4045 0 0
rfoot -27.2293 -18.673 0
rtoes 13.3132 0 0
lowerback -5.86488 2.32895 -0.703532
upperback -1.81522 3.12995 0.334514
thorax 1.35889 1.56568 0.951292
lowerneck -9.49371 -1.46899 2.98187
upperneck -2.67388 -2.25741 0.990499
head 0.721012 -1.13194 -0.265551
lclavicle 6.78763e-15 8.37329e-15 0
lhumerus -41.5518 -12.9312 96.6761
lradius 39.5082 0 0
lwrist 6.2546 0 0
lhand -11.8419 3.66041 0
lfingers 7.12502 0 0
lthumb 14.2094 33.1543 0
rclavicle 6.78763e-15 8.37329e-15 0
rhumerus -40.362 -5.64401 -89.3414
rradius 38.7161 0 0
rwrist 11.1888 0 0
rhand -26.9563 -20.1204 0
rfingers 7.12502 0 0
rthumb -0.377918 -50.1009 0
41
root 5.93599 16.9088 -28.0776 10.1058 -1.89739 -1.9173
lfemur -19.3857 0.356587 -19.8998
ltibia 32.5596 0 0
lfoot -36.3626 5.51007 0
ltoes 35.5132 0 0
rfemur -16.8765 6.70749 19.3155
rtibia 30.4094 0 0
rfoot -27.2074 -18.6557 0
rtoes 12.5462 0 0
lowerback -5.84545 2.31381 -0.539664
upperback -1.79207 3.10317 0.257652
thorax 1.38448 1.55208 0.779269
lowerneck -9.49556 -1.48005 2.98618
upperneck -2.7624 -2.27069 1.0714
head 0.694338 -1.13851 -0.241043
lclavicle 3.15967e-15 7.45179e-15 0
lhumerus -41.5117 -12.9992 96.5925
lradius 39.7875 0 0
lwrist 6.3959 0 0
lhand -11.8548 3.58256 0
lfingers 7.12502 0 0
lthumb 14.1969 33.0774 0
rclavicle 3.15967e-15 7.45179e-15 0
rhumerus -40.3127 -5.47991 -89.4947
rradius 38.769 0 0
rwrist 11.0965 0 0
rhand -26.8699 -20.2116 0
rfingers 7.12502 0 0
rthumb -0.294483 -50.1918 0
42
root 5.92855 16.9042 -28.081 10.1519 -1.73142 -1.94138
lfemur -19.8583 0.793931 -19.8588
ltibia 33.1598 0 0
lfoot -35.8456 4.92784 0
ltoes 35.3677 0 0
rfemur -16.9035 6.45357 19.3817
rtibia 30.4014 0 0
rfoot -27.1786 -18.6526 0
rtoes 11.6239 0 0
lowerback -5.81899 2.29588 -0.341153
upperback -1.76437 3.07169 0.172101
thorax 1.41393 1.53567 0.578858
lowerneck -9.49988 -1.49551 2.9843
upperneck -2.87249 -2.28884 1.164
head 0.661525 -1.1475 -0.211872
lclavicle 1.13857e-17 6.70338e-15 0
lhumerus -41.4635 -13.0701 96.4863
lradius 40.0986 0 0
lwrist 6.54965 0 0
lhand -11.865 3.48294 0
lfingers 7.12502 0 0
lthumb 14.1871 32.9784 0
rclavicle 1.13857e-17 6.70338e-15 0
rhumerus -40.2537 -5.26982 -89.675
rradius 38.8453 0 0
rwrist 10.9787 0 0
rhand -26.7806 -20.3075 0
rfingers 7.12502 0 0
rthumb -0.208221 -50.2874 0
43
root 5.92012 16.8987 -28.0848 10.2066 -1.52826 -1.97555
lfemur -20.438 1.339 -19.8065
ltibia 33.9 0 0
lfoot -35.2116 4.20509 0
ltoes 35.2088 0 0
rfemur -16.9253 6.16566 19.4656
rtibia 30.3778 0 0
rfoot -27.1417 -18.6675 0
rtoes 10.5318 0 0
lowerback -5.78587 2.27459 -0.104052
upperback -1.73151 3.03465 0.0764956
thorax 1.44849 1.51594 0.346495
lowerneck -9.50682 -1.51554 2.97584
upperneck -3.00629 -2.31202 1.26983
head 0.621946 -1.159 -0.177483
lclavicle -2.5842e-15 6.16232e-15 0
lhumerus -41.4063 -13.1444 96.3548
lradius 40.4448 0 0
lwrist 6.71755 0 0
lhand -11.8725 3.35808 0
lfingers 7.12502 0 0
lthumb 14.1799 32.8541 0
rclavicle -2.5842e-15 6.16232e-15 0
rhumerus -40.1835 -5.00997 -89.8855
rradius 38.9467 0 0
rwrist 10.8337 0 0
rhand -26.6893 -20.4074 0
rfingers 7.12502 0 0
rthumb -0.120043 -50.3871 0
44
root 5.91075 16.8929 -28.0902 10.2654 -1.31155 -2.01135
lfemur -21.0633 1.95382 -19.7667
ltibia 34.7273 0 0
lfoot -34.5304 3.37215 0
ltoes 35.0842 0 0
rfemur -16.9564 5.8688 19.5561
rtibia 30.3577 0 0
rfoot -27.1011 -18.6909 0
rtoes 9.38028 0 0
lowerback -5.74618 2.25042 0.143882
upperback -1.69642 2.99346 -0.01924
thorax 1.48237 1.494 0.107722
lowerneck -9.51505 -1.53624 2.95823
upperneck -3.15031 -2.33494 1.3779
head 0.579589 -1.17037 -0.140827
lclavicle -4.51147e-15 5.75625e-15 0
lhumerus -41.3394 -13.2245 96.2209
lradius 40.7882 0 0
lwrist 6.87623 0 0
lhand -11.88 3.22722 0
lfingers 7.12502 0 0
lthumb 14.1726 32.7238 0
rclavicle -4.51147e-15 5.75625e-15 0
rhumerus -40.1169 -4.72831 -90.1086
rradius 39.0595 0 0
rwrist 10.6741 0 0
rhand -26.6045 -20.5108 0
rfingers 7.12502 0 0
rthumb -0.0381214 -50.4903 0
45
root 5.90075 16.8874 -28.0982 10.323 -1.10594 -2.04091
lfemur -21.6691 2.59256 -19.7601
ltibia 35.5794 0 0
lfoot -33.876 2.47374 0
ltoes 35.0357 0 0
rfemur -17.0096 5.58669 19.6418
rtibia 30.3604 0 0
rfoot -27.0627 -18.7107 0
rtoes 8.28644 0 0
lowerback -5.69989 2.22463 0.373249
upperback -1.66248 2.95064 -0.104563
thorax 1.50904 1.47159 -0.110376
lowerneck -9.52323 -1.55408 2.92999
upperneck -3.28977 -2.35294 1.47652
head 0.538806 -1.17931 -0.105282
lclavicle -5.7437e-15 5.39023e-15 0
lhumerus -41.2635 -13.3111 96.1078
lradius 41.091 0 0
lwrist 7.0033 0 0
lhand -11.8899 3.11122 0
lfingers 7.12502 0 0
lthumb 14.1631 32.6086 0
rclavicle -5.7437e-15 5.39023e-15 0
rhumerus -40.0683 -4.45444 -90.3239
rradius 39.1695 0 0
rwrist 10.5139 0 0
rhand -26.5326 -20.6169 0
rfingers 7.12502 0 0
rthumb 0.0312508 -50.5965 0
